<svg class="svg-icon" style="width: 1em; height: 1em;vertical-align: middle;fill: currentColor;overflow: hidden;" viewBox="0 0 1024 1024" version="1.1" xmlns="http://www.w3.org/2000/svg"><path d="M950.72 609.76l-88.48-88.48a30.88 30.88 0 0 0-44.16 0L752 587.36 558.08 781.12a34.4 34.4 0 0 0-8 13.28L515.52 912l-2.24 7.84a32 32 0 0 0 5.6 27.68A32 32 0 0 0 544 960a33.6 33.6 0 0 0 8.96-1.28l125.28-36.96a27.04 27.04 0 0 0 13.28-8l1.76-1.76L720 886.24 740.48 864l11.52-11.52 48-48 128-128 22.08-22.24a30.88 30.88 0 0 0 0-44.48zM668.64 891.84L600 912 544 928l4.96-16 32-108.8L608 775.68 696.32 864zM800 760.8l-81.44 81.44-88.64-88.64 166.08-166.08 4 4.48 84.48 84.64z m106.56-106.72l-88.48-88.64L840.16 544 928 631.84z" fill="#0070FF" /><path d="M488 672h-320a24 24 0 0 0 0 48h320a24 24 0 0 0 0-48z" fill="" /><path d="M728 241.76h-256a24 24 0 0 0 0 48h256a24 24 0 0 0 0-48zM360.32 179.52a24 24 0 0 0-16.96 7.04l-107.52 107.52-50.88-50.88a24 24 0 1 0-33.92 33.92l67.84 67.84a24 24 0 0 0 33.92 0l124.48-124.48a24 24 0 0 0-16.96-40.96zM728 462.4h-256a24 24 0 0 0 0 48h256a24 24 0 0 0 0-48zM294.4 400a24 24 0 0 0-16.96 7.04l-45.28 45.28-45.28-45.28a24 24 0 1 0-33.92 33.92l45.28 45.28-45.28 45.28a24 24 0 1 0 33.92 33.92l45.28-45.28 45.28 45.28a24 24 0 1 0 33.92-33.92l-45.28-45.28 45.28-45.28A24 24 0 0 0 294.4 400z" fill="" /><path d="M832 128v328a24 24 0 0 1-48 0V128a16 16 0 0 0-16-16H128a16 16 0 0 0-16 16v768a16 16 0 0 0 16 16h328a24 24 0 0 1 0 48H128a64 64 0 0 1-64-64V128a64 64 0 0 1 64-64h640a64 64 0 0 1 64 64z" fill="" /></svg>