<svg class="svg-icon" style="width: 1em; height: 1em;vertical-align: middle;fill: currentColor;overflow: hidden;" viewBox="0 0 1024 1024" version="1.1" xmlns="http://www.w3.org/2000/svg"><path d="M684.963307 915.579685c-101.894691 0-184.494944-82.601276-184.494944-184.493921 0-101.893668 82.600253-184.494944 184.494944-184.494944 101.892645 0 184.492898 82.601276 184.492898 184.494944C869.456205 832.978409 786.855952 915.579685 684.963307 915.579685zM789.270954 635.342166 650.659013 773.952061l-81.534991-81.536015-32.613792 32.613792 114.148783 114.149806L821.884746 667.955958 789.270954 635.342166zM537.213241 569.654095 246.791779 569.654095l0 46.122457 252.137531 0c-13.039991 20.99415-22.747073 44.25083-28.093848 69.184709L246.791779 684.96126l0 46.124504 219.085764 0c0 42.366923 12.227486 81.785701 33.050744 115.308189L200.667276 846.393953c-25.473161 0-46.12348-20.650319-46.12348-46.12348L154.543795 154.542772c0-25.473161 20.650319-46.122457 46.12348-46.122457l472.76644 0 103.776551 103.777575 0 320.375681c-28.067242-13.06762-59.245336-20.574594-92.245937-20.574594C627.947755 511.998977 576.189951 533.961174 537.213241 569.654095zM246.791779 500.467339l438.172551 0 0-46.122457L246.791779 454.344882 246.791779 500.467339zM246.791779 385.160173l438.172551 0 0-46.124504L246.791779 339.03567 246.791779 385.160173zM592.715323 223.727481 246.791779 223.727481l0 46.12348 345.924567 0L592.716346 223.727481zM650.370441 131.48052l0 103.777575 103.777575 0L650.370441 131.48052z"  /></svg>