<?xml version='1.0' encoding='iso-8859-1'?>
<!DOCTYPE svg PUBLIC '-//W3C//DTD SVG 1.1//EN' 'http://www.w3.org/Graphics/SVG/1.1/DTD/svg11.dtd'>
<!-- Uploaded to: SVG Repo, www.svgrepo.com, Generator: SVG Repo Mixer Tools -->
<svg fill="#fff" height="800px" width="800px" version="1.1" xmlns="http://www.w3.org/2000/svg" viewBox="0 0 297 297" xmlns:xlink="http://www.w3.org/1999/xlink" enable-background="new 0 0 297 297">
  <g>
    <path d="m237.224,86.376c0-14.933-12.148-27.081-27.081-27.081-14.933,0-27.081,12.148-27.081,27.081s12.148,27.081 27.081,27.081c14.933-1.42109e-14 27.081-12.148 27.081-27.081zm-34.558,0c0-4.123 3.354-7.477 7.477-7.477 4.123,0 7.477,3.354 7.477,7.477 0,4.123-3.354,7.477-7.477,7.477-4.122-1.42109e-14-7.477-3.354-7.477-7.477z"/>
    <path d="m275.134,78.442h-4.286v-14.079c0-19.259-15.669-34.928-34.928-34.928h-179.269c-10.768,0-21.032,4.628-28.162,12.697-7.13,8.069-10.459,18.826-9.133,29.511 0.009,0.067 0.017,0.135 0.027,0.202l11.539,79.452c0.7,4.819 4.831,8.393 9.7,8.393h5.609v13.081c0,5.413 4.389,9.802 9.802,9.802 5.413,0 9.802-4.389 9.802-9.802v-13.081h36.43c5.413,0 9.802-4.389 9.802-9.802v-14.156c0-3.785 3.078-6.863 6.863-6.863h52.927c3.785,0 6.863,3.078 6.863,6.863v54.213h-154.413c-13.403-0.001-24.307,10.903-24.307,24.306 0,11.641 8.228,21.393 19.174,23.755v19.757c0,5.413 4.389,9.802 9.802,9.802h232.07c5.413,0 9.802-4.389 9.802-9.802v-98.074h4.286c12.057,0 21.866-9.809 21.866-21.866v-37.516c0-12.057-9.809-21.865-21.866-21.865zm-196.337-29.403h16.119v29.986h-16.119v-29.986zm-54.49,160.509h164.218c5.413,0 9.802-4.389 9.802-9.802v-64.015c0-14.594-11.873-26.467-26.467-26.467h-52.927c-14.594,0-26.467,11.873-26.467,26.467v4.354h-43.36l-10.306-70.948c-0.614-5.155 0.94-10.132 4.38-14.025 3.46-3.917 8.245-6.074 13.471-6.074h7.443v37.337c0,4.061 3.291,7.352 7.351,7.352h30.822c4.061,0 7.351-3.291 7.351-7.352v-37.336h126.302c8.449,0 15.324,6.875 15.324,15.324v154.59h-226.937c-2.593,0-4.703-2.11-4.703-4.702 0-2.593 2.11-4.703 4.703-4.703zm226.938,38.413h-212.467v-9.405h212.466v9.405zm26.152-110.138c0,1.247-1.015,2.262-2.262,2.262h-4.286v-42.039h4.286c1.247,0 2.262,1.015 2.262,2.262v37.515z"/>
  </g>
</svg>