<?xml version="1.0" encoding="iso-8859-1"?>
<!-- Uploaded to: SVG Repo, www.svgrepo.com, Generator: SVG Repo Mixer Tools -->
<svg height="800px" width="800px" version="1.1" id="Layer_1" xmlns="http://www.w3.org/2000/svg" xmlns:xlink="http://www.w3.org/1999/xlink" 
	 viewBox="0 0 512.853 512.853" xml:space="preserve">
<path style="fill:#FFDD09;" d="M443.733,492.928l-15.36-40.107l0.853-3.413c4.267-11.093,15.36-16.213,29.013-13.653l4.267,0.853
	l29.013,42.667c11.093-19.627,0.853-51.2-24.747-72.533c-18.773-14.507-42.667-18.773-58.027-10.24
	c-24.747,13.653-21.333,51.2,5.12,77.653C426.667,487.808,429.227,492.075,443.733,492.928"/>
<path style="fill:#FFFFFF;" d="M413.867,474.155c-23.04-23.04-28.16-54.613-12.8-71.68c-22.187,23.04-22.187,60.587,0.853,83.627
	c13.653,13.653,30.72,18.773,48.64,17.067l-6.827-9.387C433.493,490.368,423.253,483.542,413.867,474.155"/>
<path style="fill:#FD9808;" d="M477.867,395.648c-19.627-14.507-46.933-14.507-67.413-0.853c-3.413,2.56-6.827,5.12-9.387,7.68
	c1.707-1.707,4.267-3.413,6.827-5.12c15.36-8.533,38.4-4.267,58.027,10.24c24.747,19.627,34.987,48.64,26.453,68.267l0.853,0.853
	C511.147,451.115,506.027,415.275,477.867,395.648"/>
<path style="fill:#FFDD09;" d="M111.787,89.302L111.787,89.302c5.12,13.653,4.267,23.893-4.267,26.453
	c-5.12,1.707-11.947,0.853-19.627-2.56l0,0c31.573,24.747,168.96,157.867,197.973,186.88l35.84,35.84
	c23.04,23.04,55.467,60.587,79.36,89.6l0,0c-5.12-12.8-5.12-23.04,4.267-26.453c5.12-1.707,11.947-0.853,19.627,2.56l0,0
	c-29.013-24.747-66.56-56.32-89.6-79.36l-35.84-35.84C271.36,257.408,136.533,120.875,111.787,89.302"/>
<path style="fill:#FFFFFF;" d="M321.707,336.768l-35.84-35.84c-25.6-25.6-159.573-156.16-186.88-177.493
	c-8.533,5.12-18.773,7.68-29.013,7.68l-0.853,0.853c36.693,18.773,175.787,150.187,205.653,180.053l35.84,35.84
	c23.04,23.04,51.2,64,72.533,96.427l0.853-0.853c0-10.24,2.56-19.627,7.68-29.013C369.493,387.968,342.187,357.248,321.707,336.768"
	/>
<path style="fill:#FD9808;" d="M311.467,276.182C282.453,247.168,149.333,108.928,130.56,72.235l-0.853,0.853
	c0,10.24-2.56,19.627-7.68,29.013c21.333,27.307,153.6,159.573,179.2,185.173l35.84,35.84c20.48,20.48,51.2,46.933,77.653,69.973
	c8.533-5.12,18.773-7.68,29.013-7.68l0.853-0.853c-32.427-21.333-73.387-49.493-96.427-72.533L311.467,276.182z"/>
<path style="fill:#FFDD09;" d="M63.147,16.768l22.187,46.08l-1.707,3.413c-3.413,11.093-15.36,16.213-29.013,12.8l-4.267-0.853
	L21.333,35.542c-11.093,19.627-0.853,51.2,24.747,72.533c18.773,14.507,42.667,18.773,58.027,10.24
	c24.747-13.653,21.333-51.2-5.12-77.653C86.187,27.862,77.653,18.475,63.147,16.768"/>
<path style="fill:#FD9808;" d="M62.293,10.795l5.973,11.093c10.24,3.413,21.333,9.387,30.72,18.773
	c23.04,23.04,28.16,54.613,12.8,71.68c22.187-23.04,22.187-60.587-0.853-83.627C97.28,15.062,79.36,9.088,62.293,10.795"/>
<path style="fill:#FFFFFF;" d="M104.107,118.315c-15.36,8.533-38.4,4.267-58.027-10.24c-24.747-19.627-34.987-48.64-26.453-68.267
	l-0.853-1.707c-17.067,25.6-11.947,62.293,15.36,81.92c19.627,14.507,46.933,14.507,67.413,0.853c3.413-2.56,6.827-5.12,9.387-7.68
	C109.227,114.902,106.667,116.608,104.107,118.315"/>
<path style="fill:#FCC309;" d="M19.627,504.022L7.68,492.075l11.947-35.84l35.84-23.893l23.893,23.893l-23.893,35.84L19.627,504.022
	z"/>
<g>
	<path style="fill:#FFDD09;" d="M80.213,457.088L56.32,433.195l152.747-152.747l23.893,23.893L80.213,457.088z"/>
	<path style="fill:#FFDD09;" d="M238.08,308.608l-34.133-34.133l23.893-23.893l34.133,34.133L238.08,308.608z"/>
</g>
<path style="fill:#FD9808;" d="M259.413,287.275l-23.893,23.893l12.8,12.8l23.893-23.893L259.413,287.275z"/>
<path style="fill:#FFFFFF;" d="M211.627,240.342l-23.893,24.747l12.8,12.8l23.893-23.893L211.627,240.342z"/>
<path style="fill:#FFDD09;" d="M256.853,290.688c12.8-18.773,15.36-29.013,22.187-35.84c6.827-6.827,17.92-9.387,24.747-11.093
	L268.8,208.768c-1.707,7.68-4.267,17.92-11.093,24.747s-17.92,9.387-35.84,22.187L256.853,290.688z"/>
<path style="fill:#FFFFFF;" d="M260.267,236.928c6.827-6.827,10.24-17.067,12.8-23.04l12.8,12.8L256,196.822
	c0.853,9.387,0.853,23.04-5.973,29.867c-6.827,6.827-17.92,15.36-27.307,12.8l8.533,8.533
	C237.227,248.022,252.587,244.608,260.267,236.928"/>
<path style="fill:#FD9808;" d="M298.667,240.342c-6.827,2.56-16.213,5.973-23.04,12.8s-10.24,17.067-12.8,23.04l-23.893-2.56
	l29.867,29.867c10.24-19.627,9.387-33.28,16.213-40.96c6.827-6.827,20.48-6.827,29.867-5.973L298.667,240.342z"/>
<path style="fill:#FFDD09;" d="M303.787,243.755l-34.133-34.133L452.267,26.155c9.387-9.387,24.747-9.387,34.133,0l0,0
	c9.387,9.387,9.387,23.893,0,33.28L303.787,243.755z"/>
<path style="fill:#FFFFFF;" d="M268.8,209.622l183.467-184.32c9.387-9.387,24.747-9.387,34.133,0l-9.387-9.387
	c-11.093-11.093-29.867-11.093-40.96,0L256,195.968l29.867,29.867L268.8,209.622z"/>
<path style="fill:#FD9808;" d="M495.787,35.542l-9.387-9.387c9.387,9.387,9.387,23.893,0,33.28l-183.467,184.32l12.8,12.8
	L495.787,75.648C506.88,64.555,506.88,46.635,495.787,35.542"/>
<path d="M354.133,408.448c-2.56,0-4.267-0.853-5.973-2.56c-3.413-3.413-3.413-8.533,0-11.947l17.067-17.067
	c3.413-3.413,8.533-3.413,11.947,0c3.413,3.413,3.413,8.533,0,11.947l-17.067,17.067C358.4,407.595,356.693,408.448,354.133,408.448
	z"/>
<path d="M69.973,137.088c-13.653,0-27.307-4.267-39.253-12.8C0,102.955-7.68,61.995,12.8,31.275c1.707-2.56,4.267-4.267,6.827-3.413
	c2.56,0,5.973,1.707,6.827,4.267L51.2,73.088c11.947,0.853,23.893-5.973,29.013-17.067l0,0L56.32,13.355
	c-1.707-2.56-1.707-5.973,0-8.533c0.853-1.707,3.413-3.413,5.973-4.267c20.48-1.707,40.96,5.12,55.467,19.627
	s21.333,34.133,19.627,54.613s-12.8,38.4-29.867,50.347C96.427,133.675,82.773,137.088,69.973,137.088z M20.48,54.315
	c-5.973,20.48,1.707,43.52,19.627,56.32c17.067,11.947,40.107,11.947,57.173,0.853c12.8-8.533,21.333-22.187,23.04-37.547
	s-4.267-29.867-14.507-40.96c-7.68-7.68-17.067-12.8-27.307-14.507L97.28,50.902c1.707,2.56,1.707,5.12,0,7.68l-1.707,4.267
	C87.04,79.915,69.12,90.155,49.493,89.302h-4.267c-2.56,0-5.12-1.707-6.827-4.267L20.48,54.315z"/>
<path d="M443.733,510.848c-17.92,0-34.987-6.827-47.787-19.627c-14.507-14.507-21.333-34.133-19.627-54.613
	c1.707-20.48,12.8-38.4,29.867-50.347c23.04-15.36,53.76-15.36,76.8,0.853c29.867,21.333,38.4,62.293,17.92,93.013
	c-1.707,2.56-4.267,3.413-7.68,4.267c-2.56,0-5.973-1.707-6.827-4.267l-23.893-40.96c-12.8-0.853-23.893,5.973-29.867,17.067
	l24.747,41.813c1.707,2.56,1.707,5.973,0,8.533c-1.707,2.56-4.267,4.267-6.827,4.267
	C448.853,510.848,446.293,510.848,443.733,510.848z M443.733,391.382c-10.24,0-19.627,2.56-28.16,8.533
	c-12.8,8.533-21.333,22.187-23.04,37.547c-1.707,15.36,4.267,29.867,14.507,40.96c7.68,7.68,17.067,12.8,27.307,14.507
	l-18.773-32.427c-1.707-2.56-1.707-5.12,0-7.68l1.707-4.267c8.533-17.067,26.453-28.16,46.08-26.453h4.267
	c2.56,0,5.12,1.707,6.827,4.267l17.92,30.72c5.973-20.48-1.707-43.52-19.627-56.32C464.213,394.795,453.973,391.382,443.733,391.382
	z"/>
<path d="M333.653,381.142c-2.56,0-4.267-0.853-5.973-2.56c-3.413-3.413-3.413-8.533,0-11.947l13.653-13.653
	c3.413-3.413,8.533-3.413,11.947,0c3.413,3.413,3.413,8.533,0,11.947l-13.653,13.653
	C337.92,380.288,336.213,381.142,333.653,381.142z"/>
<path d="M320.853,260.822L320.853,260.822c-2.56,0-4.267-0.853-5.973-2.56l-60.587-60.587c-3.413-3.413-3.413-8.533,0-11.947
	L430.08,10.795c13.653-13.653,35.84-13.653,49.493,0l23.04,23.04c13.653,13.653,13.653,35.84,0,49.493L326.827,258.262
	C325.12,259.968,322.56,260.822,320.853,260.822z M272.213,191.702L320,239.488l169.813-168.96c6.827-6.827,6.827-17.92,0-24.747
	l-23.04-23.04c-6.827-6.827-17.92-6.827-24.747,0L272.213,191.702z"/>
<path d="M249.173,332.502c-2.56,0-4.267-0.853-5.973-2.56l-60.587-60.587c-3.413-3.413-3.413-8.533,0-11.947l23.893-23.893
	c1.707-1.707,3.413-2.56,5.973-2.56l0,0c2.56,0,4.267,0.853,5.973,2.56l60.587,60.587c3.413,3.413,3.413,8.533,0,11.947L256,329.942
	C254.293,330.795,251.733,332.502,249.173,332.502L249.173,332.502z M201.387,263.382l47.787,47.787l11.947-11.947l-47.787-47.787
	L201.387,263.382z"/>
<path d="M273.92,307.755c-2.56,0-4.267-0.853-5.973-2.56l-60.587-60.587c-2.56-2.56-3.413-5.973-1.707-9.387s5.12-5.12,8.533-5.12
	c5.973,0,18.773,0.853,23.893-3.413c5.973-5.973,14.507-27.307,14.507-34.133c0-3.413,1.707-6.827,5.12-8.533
	c3.413-1.707,6.827-0.853,9.387,1.707l60.587,60.587c2.56,2.56,3.413,5.973,1.707,9.387c-1.707,3.413-4.267,5.12-8.533,5.12
	c-6.827,0-29.013,8.533-34.133,14.507c-5.12,5.12-4.267,17.067-3.413,23.893c0,3.413-1.707,6.827-5.12,8.533
	C275.627,307.755,274.773,307.755,273.92,307.755z M232.96,247.168l32.427,32.427c0.853-5.973,3.413-11.947,7.68-16.213
	c5.12-5.12,17.92-11.947,29.867-16.213l-37.547-37.547c-4.267,11.947-10.24,24.747-16.213,29.867
	C244.907,243.755,238.933,246.315,232.96,247.168z"/>
<path d="M8.533,512.555c-2.56,0-4.267-0.853-5.973-2.56C0.853,508.288,0,505.728,0,503.168l5.12-41.813
	c0-2.56,1.707-4.267,3.413-5.973l37.547-25.6c3.413-2.56,7.68-1.707,11.093,0.853l23.893,23.893c2.56,2.56,3.413,7.68,0.853,11.093
	l-25.6,37.547c-1.707,1.707-3.413,3.413-5.973,3.413l-40.96,5.973C9.387,512.555,9.387,512.555,8.533,512.555z M21.333,467.328
	l-3.413,26.453l27.307-3.413l19.627-28.16l-14.507-14.507L21.333,467.328z"/>
<path d="M75.093,469.888c-2.56,0-4.267-0.853-5.973-2.56l-23.893-23.893c-1.707-1.707-2.56-4.267-2.56-5.973
	c0-2.56,0.853-4.267,2.56-5.973l156.16-156.16c3.413-3.413,8.533-3.413,11.947,0l23.893,23.893c1.707,1.707,2.56,3.413,2.56,5.973
	s-0.853,4.267-2.56,5.973L81.92,467.328C80.213,469.035,77.653,469.888,75.093,469.888z M63.147,437.462l11.947,11.947
	l144.213-143.36l-11.947-11.947L63.147,437.462z"/>
<path d="M315.733,205.355c-2.56,0-4.267-0.853-5.973-2.56c-3.413-3.413-3.413-8.533,0-11.947L454.827,45.782
	c3.413-3.413,8.533-3.413,11.947,0c3.413,3.413,3.413,8.533,0,11.947L321.707,202.795C320,204.502,318.293,205.355,315.733,205.355z
	"/>
<path d="M383.147,451.115L383.147,451.115c-3.413,0-5.973-1.707-6.827-3.413c-30.72-46.08-53.76-77.653-71.68-95.573l-42.667-42.667
	c-3.413-3.413-3.413-8.533,0-11.947l1.707-1.707c-0.853-9.387,0-23.893,8.533-32.427c5.12-5.12,12.8-9.387,18.773-11.947
	c3.413-1.707,6.827-0.853,9.387,1.707l51.2,51.2l0,0c17.92,17.92,48.64,40.96,95.573,71.68c2.56,1.707,3.413,3.413,3.413,5.973
	s-0.853,5.12-2.56,6.827l-0.853,0.853c-1.707,1.707-3.413,2.56-5.973,2.56c-10.24,0-19.627,3.413-27.307,8.533
	c-12.8,9.387-21.333,24.747-21.333,41.813c0,2.56-0.853,4.267-2.56,5.973l-0.853,0.853
	C388.267,450.262,385.707,451.115,383.147,451.115z M280.747,304.342l36.693,36.693c16.213,16.213,36.693,42.667,62.293,80.213
	c5.12-13.653,13.653-26.453,27.307-34.987c5.12-3.413,10.24-5.973,15.36-7.68c-38.4-25.6-64.853-46.08-80.213-62.293l-46.933-46.933
	c-4.267,2.56-7.68,4.267-8.533,5.973c-5.12,5.12-4.267,17.067-3.413,23.893C282.453,300.928,281.6,302.635,280.747,304.342z"/>
<path d="M208.213,252.288c-2.56,0-4.267-0.853-5.973-2.56l-42.667-42.667c-30.72-30.72-60.587-52.907-93.867-69.973
	c-2.56-0.853-4.267-3.413-4.267-5.973c0-2.56,0.853-5.12,2.56-7.68l0.853-0.853c0.853-1.707,3.413-2.56,5.12-2.56
	c10.24,0,19.627-3.413,27.307-8.533c14.507-9.387,23.04-24.747,23.04-41.813c0-2.56,0.853-4.267,2.56-5.973l0.853-0.853
	c2.56-1.707,5.12-2.56,7.68-2.56c2.56,0,5.12,1.707,5.973,4.267c17.067,33.28,39.253,63.147,70.827,94.72l51.2,51.2
	c2.56,2.56,3.413,5.973,1.707,9.387c-2.56,5.973-6.827,14.507-11.947,18.773c-8.533,8.533-23.04,9.387-32.427,8.533l-1.707,1.707
	C213.333,251.435,210.773,252.288,208.213,252.288L208.213,252.288z M93.867,132.822c27.307,16.213,52.053,36.693,78.507,63.147
	l36.693,36.693c1.707-0.853,3.413-1.707,5.12-1.707c5.973,0,18.773,0.853,23.893-3.413c0.853-0.853,3.413-4.267,5.973-8.533
	l-47.787-47.787c-25.6-25.6-46.08-51.2-62.293-78.507c-5.12,13.653-13.653,24.747-26.453,33.28
	C103.253,128.555,98.133,131.115,93.867,132.822z"/>
</svg>